<svg xmlns="http://www.w3.org/2000/svg" xmlns:svg="http://www.w3.org/2000/svg" id="svg8" width="525.592" height="350.836" version="1.1" viewBox="0 0 139.063 92.825"><defs id="defs2"><marker id="marker4882" orient="auto" refX="0" refY="0" style="overflow:visible"><path id="path4880" d="M 8.7185878,4.0337352 -2.2072895,0.01601326 8.7185884,-4.0017078 c -1.7454984,2.3720609 -1.7354408,5.6174519 -6e-7,8.035443 z" transform="matrix(1.1,0,0,1.1,1.1,0)" style="fill:#000;fill-opacity:1;fill-rule:evenodd;stroke:#000;stroke-width:.625;stroke-linejoin:round;stroke-opacity:1"/></marker><marker id="marker4848" orient="auto" refX="0" refY="0" style="overflow:visible"><path id="path4846" d="M 8.7185878,4.0337352 -2.2072895,0.01601326 8.7185884,-4.0017078 c -1.7454984,2.3720609 -1.7354408,5.6174519 -6e-7,8.035443 z" transform="matrix(-1.1,0,0,-1.1,-1.1,0)" style="fill:#000;fill-opacity:1;fill-rule:evenodd;stroke:#000;stroke-width:.625;stroke-linejoin:round;stroke-opacity:1"/></marker><marker id="Arrow2Lstart" orient="auto" refX="0" refY="0" style="overflow:visible"><path id="path4550" d="M 8.7185878,4.0337352 -2.2072895,0.01601326 8.7185884,-4.0017078 c -1.7454984,2.3720609 -1.7354408,5.6174519 -6e-7,8.035443 z" transform="matrix(1.1,0,0,1.1,1.1,0)" style="fill:#000;fill-opacity:1;fill-rule:evenodd;stroke:#000;stroke-width:.625;stroke-linejoin:round;stroke-opacity:1"/></marker><marker id="Arrow2Lend" orient="auto" refX="0" refY="0" style="overflow:visible"><path id="path4553" d="M 8.7185878,4.0337352 -2.2072895,0.01601326 8.7185884,-4.0017078 c -1.7454984,2.3720609 -1.7354408,5.6174519 -6e-7,8.035443 z" transform="matrix(-1.1,0,0,-1.1,-1.1,0)" style="fill:#000;fill-opacity:1;fill-rule:evenodd;stroke:#000;stroke-width:.625;stroke-linejoin:round;stroke-opacity:1"/></marker></defs><metadata id="metadata5"/><g id="layer1" transform="translate(-20.939257,-85.414766)"><path style="fill:none;fill-rule:evenodd;stroke:#000;stroke-width:.26458332px;stroke-linecap:butt;stroke-linejoin:miter;stroke-opacity:1;marker-start:url(#Arrow2Lstart);marker-end:url(#Arrow2Lend)" id="path4485" d="M 35.546847,85.857071 V 177.79779"/><path style="fill:none;fill-rule:evenodd;stroke:#000;stroke-width:.26458332px;stroke-linecap:butt;stroke-linejoin:miter;stroke-opacity:1;marker-start:url(#marker4882);marker-end:url(#marker4848)" id="path4487" d="M 21.381562,165.50339 H 159.55991"/><path style="fill:none;fill-rule:evenodd;stroke:#000;stroke-width:.26458332px;stroke-linecap:butt;stroke-linejoin:miter;stroke-opacity:1" id="path4489" d="m 54.255714,142.51821 c 23.519717,0 57.195676,-5.61266 78.577236,-39.55589"/><path style="fill:none;fill-rule:evenodd;stroke:#000;stroke-width:.26458332px;stroke-linecap:butt;stroke-linejoin:miter;stroke-opacity:1" id="path4493" d="m 33.141422,142.51821 h 4.409945"/><path style="fill:none;fill-rule:evenodd;stroke:#000;stroke-width:.26458332px;stroke-linecap:butt;stroke-linejoin:miter;stroke-opacity:1" id="path4495" d="m 54.255714,163.6325 v 3.47451"/><path style="fill:none;fill-rule:evenodd;stroke:#000;stroke-width:.26458332px;stroke-linecap:butt;stroke-linejoin:miter;stroke-opacity:1" id="path4497" d="m 85.258978,163.2316 v 3.87541"/><path style="fill:none;fill-rule:evenodd;stroke:#000;stroke-width:.26458332px;stroke-linecap:butt;stroke-linejoin:miter;stroke-opacity:1" id="path4499" d="m 116.79678,163.09796 v 4.40995"/><path style="fill:none;fill-rule:evenodd;stroke:#000;stroke-width:.26458332px;stroke-linecap:butt;stroke-linejoin:miter;stroke-opacity:1" id="path4501" d="M 47.573975,142.51821 H 69.89098"/><path style="fill:none;fill-rule:evenodd;stroke:#000;stroke-width:.26458332;stroke-linecap:butt;stroke-linejoin:miter;stroke-miterlimit:4;stroke-dasharray:.79374995,.79374995;stroke-dashoffset:0;stroke-opacity:1" id="path4503" d="M 85.125345,142.78548 H 70.425521"/><path style="fill:none;fill-rule:evenodd;stroke:#000;stroke-width:.26458332px;stroke-linecap:butt;stroke-linejoin:miter;stroke-opacity:1" id="path4505" d="M 77.508163,145.05727 93.26297,140.83578"/><path style="fill:none;fill-rule:evenodd;stroke:#000;stroke-width:.26458332;stroke-linecap:butt;stroke-linejoin:miter;stroke-miterlimit:4;stroke-dasharray:.79374995,.79374995;stroke-dashoffset:0;stroke-opacity:1" id="path4507" d="m 93.26297,140.83578 22.78421,-6.10501"/><path style="fill:none;fill-rule:evenodd;stroke:#000;stroke-width:.26458332px;stroke-linecap:butt;stroke-linejoin:miter;stroke-opacity:1" id="path4509" d="m 111.8523,138.2419 9.35443,-7.61718"/><path style="fill:none;fill-rule:evenodd;stroke:#000;stroke-width:.26499999;stroke-linecap:butt;stroke-linejoin:miter;stroke-miterlimit:4;stroke-dasharray:.79499996,.79499996;stroke-dashoffset:0;stroke-opacity:1" id="path4511" d="m 121.20673,130.62472 20.71339,-18.4416"/></g></svg>